<svg width="100" height="100" viewBox="0 0 100 100" xmlns="http://www.w3.org/2000/svg">
  <!-- Elephant Head Outline -->
  <path d="M 50 20 Q 30 18 20 30 Q 15 40 18 50 Q 20 60 25 65 Q 30 70 35 68 Q 40 66 45 68 Q 50 70 55 68 Q 60 66 65 68 Q 70 70 75 65 Q 80 60 82 50 Q 85 40 80 30 Q 70 18 50 20 Z" 
        fill="none" 
        stroke="#FFFFFF" 
        stroke-width="3" 
        stroke-linecap="round" 
        stroke-linejoin="round"/>
  
  <!-- Left Ear (with wavy edge) -->
  <path d="M 20 30 Q 10 25 8 35 Q 6 45 10 50 Q 12 55 15 52 Q 18 50 20 45 Q 22 40 20 35 Q 20 30 20 30" 
        fill="none" 
        stroke="#FFFFFF" 
        stroke-width="3" 
        stroke-linecap="round" 
        stroke-linejoin="round"/>
  
  <!-- Right Ear (smoother) -->
  <path d="M 80 30 Q 90 25 92 35 Q 94 45 90 50 Q 88 55 85 52 Q 82 50 80 45 Q 78 40 80 35 Q 80 30 80 30" 
        fill="none" 
        stroke="#FFFFFF" 
        stroke-width="3" 
        stroke-linecap="round" 
        stroke-linejoin="round"/>
  
  <!-- Eyes -->
  <circle cx="35" cy="45" r="3" fill="#FFFFFF"/>
  <circle cx="65" cy="45" r="3" fill="#FFFFFF"/>
  
  <!-- Tusks -->
  <line x1="42" y1="55" x2="42" y2="65" stroke="#FFFFFF" stroke-width="2.5" stroke-linecap="round"/>
  <line x1="58" y1="55" x2="58" y2="65" stroke="#FFFFFF" stroke-width="2.5" stroke-linecap="round"/>
  
  <!-- Trunk with texture lines -->
  <path d="M 50 60 Q 50 70 50 80 Q 50 85 48 88" 
        fill="none" 
        stroke="#FFFFFF" 
        stroke-width="3" 
        stroke-linecap="round" 
        stroke-linejoin="round"/>
  
  <!-- Trunk texture lines (horizontal dashes) -->
  <line x1="48" y1="65" x2="52" y2="65" stroke="#FFFFFF" stroke-width="1.5" stroke-linecap="round"/>
  <line x1="47" y1="70" x2="53" y2="70" stroke="#FFFFFF" stroke-width="1.5" stroke-linecap="round"/>
  <line x1="47.5" y1="75" x2="52.5" y2="75" stroke="#FFFFFF" stroke-width="1.5" stroke-linecap="round"/>
  <line x1="48" y1="80" x2="52" y2="80" stroke="#FFFFFF" stroke-width="1.5" stroke-linecap="round"/>
</svg>

